<svg xmlns="http://www.w3.org/2000/svg" viewBox="0 0 512 512" fill="currentColor">
  <!--! Font Awesome Free 6.5.1 by @fontawesome - https://fontawesome.com License - https://fontawesome.com/license/free (Icons: CC BY 4.0, Fonts: SIL OFL 1.1, Code: MIT License) Copyright 2023 Fonticons, Inc. -->
  <path d="M512 240c0 114.9-114.6 208-256 208c-37.1 0-72.3-6.4-104.1-17.9c-11.9 8.7-31.3 20.6-54.3 30.6C73.6 471.1 44.7 480 16 480c-6.5 0-12.3-3.9-14.8-9.9c-2.5-6-1.1-12.8 3.4-17.4l0 0 0 0 0 0 0 0 .1-.1zM256 0C114.6 0 0 103.1 0 231c0 45.4 12.1 87.8 33.6 124.8c11.2-8.1 28.2-17.5 48.2-27.5c-4.3-11.7-6.8-24.2-6.8-37.3c0-114.9 114.6-208 256-208s256 93.1 256 208s-114.6 208-256 208c-20.3 0-40-2.5-58.5-7.1c-15.9 12.3-34.9 22.3-54.8 29.8c21.4 8.9 44.5 13.9 68.3 13.9c141.4 0 256-103.1 256-231S397.4 0 256 0z"/>
</svg>