<svg xmlns="http://www.w3.org/2000/svg" viewBox="0 0 512 512" fill="currentColor">
  <!--! Font Awesome Free 6.5.1 by @fontawesome - https://fontawesome.com License - https://fontawesome.com/license/free (Icons: CC BY 4.0, Fonts: SIL OFL 1.1, Code: MIT License) Copyright 2023 Fonticons, Inc. -->
  <path d="M313.4 32.9c26 5.2 42.9 30.5 37.7 56.5l-2.3 11.4c-5.3 26.7-15.1 52.1-28.8 75.2H464c26.5 0 48 21.5 48 48c0 18.5-10.5 34.6-25.9 42.6C497 275.4 504 288.9 504 304c0 23.4-16.8 42.9-38.9 47.1c4.4 7.3 6.9 15.8 6.9 24.9c0 21.3-13.9 39.4-33.1 45.6c.7 3.3 1.1 6.8 1.1 10.4c0 26.5-21.5 48-48 48H294.5c-19 0-37.5-5.6-53.3-16.1l-38.4-25.6c-8.1-5.4-17.4-8.9-27.3-10.9v-6.6c15.6-13.5 25-32.5 25-53.7c0-1.5-.1-3-.2-4.5c.9-1.2 1.8-2.4 2.7-3.6c1-.8 2.1-1.6 3.2-2.4c13.2-10.1 21.2-25.2 21.2-41.4c0-2.3-.1-4.6-.4-6.8c.8-1.4 1.5-2.8 2.2-4.2c12.5-26.3 16.8-56.2 14.3-86.4l-2.2-26.8c-5.2-26-30.5-42.9-56.5-37.7zM32 192H96c17.7 0 32 14.3 32 32V448c0 17.7-14.3 32-32 32H32c-17.7 0-32-14.3-32-32V224c0-17.7 14.3-32 32-32z"/>
</svg>