<svg width="209" height="27" viewBox="0 0 209 27" fill="none" xmlns="http://www.w3.org/2000/svg">
<path d="M0.988 0.799998H6.82V26H0.988V0.799998ZM21.0805 26.432C19.0885 26.432 17.1565 26.168 15.2845 25.64C13.4365 25.088 11.9485 24.38 10.8205 23.516L12.8005 19.124C13.8805 19.916 15.1645 20.552 16.6525 21.032C18.1405 21.512 19.6285 21.752 21.1165 21.752C22.7725 21.752 23.9965 21.512 24.7885 21.032C25.5805 20.528 25.9765 19.868 25.9765 19.052C25.9765 18.452 25.7365 17.96 25.2565 17.576C24.8005 17.168 24.2005 16.844 23.4565 16.604C22.7365 16.364 21.7525 16.1 20.5045 15.812C18.5845 15.356 17.0125 14.9 15.7885 14.444C14.5645 13.988 13.5085 13.256 12.6205 12.248C11.7565 11.24 11.3245 9.896 11.3245 8.216C11.3245 6.752 11.7205 5.432 12.5125 4.256C13.3045 3.056 14.4925 2.108 16.0765 1.412C17.6845 0.715999 19.6405 0.368 21.9445 0.368C23.5525 0.368 25.1245 0.559999 26.6605 0.943999C28.1965 1.328 29.5405 1.88 30.6925 2.6L28.8925 7.028C26.5645 5.708 24.2365 5.048 21.9085 5.048C20.2765 5.048 19.0645 5.312 18.2725 5.84C17.5045 6.368 17.1205 7.064 17.1205 7.928C17.1205 8.792 17.5645 9.44 18.4525 9.872C19.3645 10.28 20.7445 10.688 22.5925 11.096C24.5125 11.552 26.0845 12.008 27.3085 12.464C28.5325 12.92 29.5765 13.64 30.4405 14.624C31.3285 15.608 31.7725 16.94 31.7725 18.62C31.7725 20.06 31.3645 21.38 30.5485 22.58C29.7565 23.756 28.5565 24.692 26.9485 25.388C25.3405 26.084 23.3845 26.432 21.0805 26.432ZM44.9375 16.1L41.5535 19.628V26H35.7575V0.799998H41.5535V12.572L52.7135 0.799998H59.1935L48.7535 12.032L59.8055 26H53.0015L44.9375 16.1ZM77.877 20.6H66.177L63.945 26H57.969L69.201 0.799998H74.961L86.229 26H80.109L77.877 20.6ZM76.041 16.172L72.045 6.524L68.049 16.172H76.041ZM92.7978 5.552H84.7338V0.799998H106.694V5.552H98.6298V26H92.7978V5.552ZM129.344 21.32V26H109.832V0.799998H128.876V5.48H115.628V10.952H127.328V15.488H115.628V21.32H129.344ZM133.984 0.799998H139.816V21.248H152.452V26H133.984V0.799998ZM165.418 26.14C164.951 26.14 164.565 25.9933 164.258 25.7C163.965 25.3933 163.818 25.02 163.818 24.58C163.818 24.14 163.965 23.7733 164.258 23.48C164.565 23.1867 164.951 23.04 165.418 23.04C165.871 23.04 166.251 23.1933 166.558 23.5C166.865 23.7933 167.018 24.1533 167.018 24.58C167.018 25.02 166.865 25.3933 166.558 25.7C166.251 25.9933 165.871 26.14 165.418 26.14ZM174.9 26.2C173.714 26.2 172.64 25.9467 171.68 25.44C170.734 24.92 169.987 24.2133 169.44 23.32C168.894 22.4133 168.62 21.4 168.62 20.28C168.62 19.16 168.894 18.1533 169.44 17.26C169.987 16.3667 170.734 15.6667 171.68 15.16C172.64 14.64 173.714 14.38 174.9 14.38C176.98 14.38 178.554 15.0267 179.62 16.32L177.98 17.88C177.167 16.9733 176.167 16.52 174.98 16.52C174.247 16.52 173.587 16.68 173 17C172.427 17.32 171.974 17.7667 171.64 18.34C171.32 18.9133 171.16 19.56 171.16 20.28C171.16 21.0133 171.32 21.6667 171.64 22.24C171.974 22.8133 172.427 23.26 173 23.58C173.587 23.9 174.247 24.06 174.98 24.06C176.18 24.06 177.18 23.6 177.98 22.68L179.62 24.26C178.527 25.5533 176.954 26.2 174.9 26.2ZM186.971 26.2C185.784 26.2 184.711 25.9467 183.751 25.44C182.791 24.92 182.038 24.2133 181.491 23.32C180.944 22.4133 180.671 21.4 180.671 20.28C180.671 19.16 180.944 18.1533 181.491 17.26C182.038 16.3533 182.791 15.6467 183.751 15.14C184.711 14.6333 185.784 14.38 186.971 14.38C188.171 14.38 189.251 14.6333 190.211 15.14C191.171 15.6467 191.924 16.3533 192.471 17.26C193.018 18.1533 193.291 19.16 193.291 20.28C193.291 21.4 193.018 22.4133 192.471 23.32C191.924 24.2133 191.171 24.92 190.211 25.44C189.251 25.9467 188.171 26.2 186.971 26.2ZM186.971 24.06C187.691 24.06 188.338 23.9 188.911 23.58C189.484 23.2467 189.931 22.7933 190.251 22.22C190.571 21.6467 190.731 21 190.731 20.28C190.731 19.56 190.571 18.9133 190.251 18.34C189.931 17.7667 189.484 17.32 188.911 17C188.338 16.68 187.691 16.52 186.971 16.52C186.264 16.52 185.624 16.6867 185.051 17.02C184.478 17.34 184.024 17.7867 183.691 18.36C183.371 18.92 183.211 19.56 183.211 20.28C183.211 21 183.371 21.6467 183.691 22.22C184.024 22.7933 184.478 23.2467 185.051 23.58C185.624 23.9 186.264 24.06 186.971 24.06ZM206.37 26L206.35 18.96L202.85 24.72H201.71L198.21 19.14V26H195.81V14.56H197.97L202.31 21.72L206.59 14.56H208.75L208.77 26H206.37Z" fill="white"/>
</svg>
