<svg width="209" height="27" viewBox="0 0 209 27" fill="none" xmlns="http://www.w3.org/2000/svg">
<g fill="white">
<path d="M12.158 25.99V14.166L6.54199 20.358L4.99799 18.93L13.13 10.038H15.026V25.99H12.158Z"/>
<path d="M22.1816 25.99V23.47L25.9256 19.542C26.7776 18.63 27.3596 17.934 27.6716 17.454C27.9836 16.974 28.1396 16.53 28.1396 16.122C28.1396 15.498 27.9176 15.03 27.4736 14.718C27.0296 14.406 26.3936 14.25 25.5656 14.25C24.4256 14.25 23.3936 14.502 22.4696 15.006L21.5096 12.63C22.7456 12.012 24.1136 11.7 25.6136 11.7C27.4136 11.7 28.7936 12.156 29.7536 13.068C30.7136 13.968 31.1936 15.15 31.1936 16.614C31.1936 17.382 31.0136 18.15 30.6536 18.918C30.2936 19.674 29.5616 20.61 28.4576 21.726L23.9576 26H32.2376V28.47H22.1816V25.99Z"/>
<path d="M43.9141 25.99V11.97H35.4541V9.498L44.2261 9.21H45.0901V25.99H43.9141ZM36.6301 11.97H42.7381V10.632L36.6301 10.836V11.97Z"/>
<path d="M57.9467 26.238C56.6147 26.238 55.4387 25.998 54.4187 25.518C53.3987 25.026 52.5947 24.33 51.9947 23.43C51.4067 22.53 51.1127 21.522 51.1127 20.406C51.1127 18.006 52.1867 16.29 54.3347 15.258L55.3307 14.79C54.4547 14.172 53.9147 13.416 53.9147 12.522C53.9147 11.598 54.2987 10.926 55.0667 10.506C55.8347 10.074 56.8427 9.858 58.0907 9.858C59.3987 9.858 60.4427 10.122 61.2227 10.65L62.0507 8.598C61.0547 8.166 59.8547 7.95 58.4507 7.95C57.0827 7.95 55.9307 8.202 54.9947 8.706C54.0587 9.21 53.3987 9.882 53.0147 10.722C52.6307 11.55 52.4387 12.426 52.4387 13.35C52.4387 14.454 52.7987 15.378 53.5187 16.122L52.1267 16.83C50.8807 17.946 50.2567 19.326 50.2567 20.97C50.2567 22.194 50.6287 23.238 51.3727 24.102C52.1287 24.966 53.1367 25.626 54.3967 26.082C55.6567 26.526 57.0607 26.748 58.6087 26.748C60.0727 26.748 61.4347 26.496 62.6947 25.992L63.5947 28.188C62.1307 28.746 60.4027 29.025 58.4107 29.025C58.1167 28.467 58.0267 27.351 57.9467 26.238Z"/>
<path d="M78.8238 28.47C76.9278 28.47 75.3438 28.086 74.0718 27.318C72.7998 26.538 71.8638 25.53 71.2638 24.294C70.6758 23.058 70.3818 21.678 70.3818 20.154C70.3818 18.63 70.6758 17.25 71.2638 16.014C71.8638 14.778 72.7998 13.77 74.0718 12.99C75.3438 12.21 76.9278 11.82 78.8238 11.82C80.7198 11.82 82.3038 12.21 83.5758 12.99C84.8598 13.77 85.7958 14.778 86.3838 16.014C86.9838 17.25 87.2838 18.63 87.2838 20.154C87.2838 21.678 86.9838 23.058 86.3838 24.294C85.7958 25.53 84.8598 26.538 83.5758 27.318C82.3038 28.086 80.7198 28.47 78.8238 28.47ZM78.8238 25.998C80.0118 25.998 80.9838 25.686 81.7398 25.062C82.5078 24.426 83.0598 23.598 83.3958 22.578C83.7318 21.546 83.8998 20.442 83.8998 19.266C83.8998 18.102 83.7318 17.034 83.3958 16.062C83.0598 15.09 82.5078 14.286 81.7398 13.65C80.9838 13.014 80.0118 12.702 78.8238 12.702C77.6358 12.702 76.6638 13.014 75.9078 13.65C75.1518 14.286 74.5998 15.09 74.2518 16.062C73.9158 17.034 73.7478 18.102 73.7478 19.266C73.7478 20.442 73.9158 21.546 74.2518 22.578C74.5998 23.598 75.1518 24.426 75.9078 25.062C76.6638 25.686 77.6358 25.998 78.8238 25.998Z"/>
<path d="M99.0713 25.99V9.438H91.5653V6.966H104.291V9.438H99.0713V25.99Z"/>
<path d="M123.637 28.47C121.741 28.47 120.157 28.086 118.885 27.318C117.613 26.538 116.677 25.53 116.077 24.294C115.489 23.058 115.195 21.678 115.195 20.154C115.195 18.63 115.489 17.25 116.077 16.014C116.677 14.778 117.613 13.77 118.885 12.99C120.157 12.21 121.741 11.82 123.637 11.82C125.533 11.82 127.117 12.21 128.389 12.99C129.673 13.77 130.609 14.778 131.197 16.014C131.797 17.25 132.097 18.63 132.097 20.154C132.097 21.678 131.797 23.058 131.197 24.294C130.609 25.53 129.673 26.538 128.389 27.318C127.117 28.086 125.533 28.47 123.637 28.47ZM123.637 25.998C124.825 25.998 125.797 25.686 126.553 25.062C127.321 24.426 127.873 23.598 128.209 22.578C128.545 21.546 128.713 20.442 128.713 19.266C128.713 18.102 128.545 17.034 128.209 16.062C127.873 15.09 127.321 14.286 126.553 13.65C125.797 13.014 124.825 12.702 123.637 12.702C122.449 12.702 121.477 13.014 120.721 13.65C119.965 14.286 119.413 15.09 119.065 16.062C118.729 17.034 118.561 18.102 118.561 19.266C118.561 20.442 118.729 21.546 119.065 22.578C119.413 23.598 119.965 24.426 120.721 25.062C121.477 25.686 122.449 25.998 123.637 25.998Z"/>
<path d="M141.678 25.99V14.166L137.062 20.358L135.518 18.93L143.65 10.038H145.546V25.99H142.678Z"/>
<path d="M161.428 28.47V12.102H152.092V9.63H167.332V12.102H161.428V28.47Z"/>
<path d="M182.263 28.47C180.367 28.47 178.783 28.086 177.511 27.318C176.239 26.538 175.303 25.53 174.703 24.294C174.115 23.058 173.821 21.678 173.821 20.154C173.821 18.63 174.115 17.25 174.703 16.014C175.303 14.778 176.239 13.77 177.511 12.99C178.783 12.21 180.367 11.82 182.263 11.82C184.159 11.82 185.743 12.21 187.015 12.99C188.299 13.77 189.235 14.778 189.823 16.014C190.423 17.25 190.723 18.63 190.723 20.154C190.723 21.678 190.423 23.058 189.823 24.294C189.235 25.53 188.299 26.538 187.015 27.318C185.743 28.086 184.159 28.47 182.263 28.47ZM182.263 25.998C183.451 25.998 184.423 25.686 185.179 25.062C185.947 24.426 186.499 23.598 186.835 22.578C187.171 21.546 187.339 20.442 187.339 19.266C187.339 18.102 187.171 17.034 186.835 16.062C186.499 15.09 185.947 14.286 185.179 13.65C184.423 13.014 183.451 12.702 182.263 12.702C181.075 12.702 180.103 13.014 179.347 13.65C178.591 14.286 178.039 15.09 177.691 16.062C177.355 17.034 177.187 18.102 177.187 19.266C177.187 20.442 177.355 21.546 177.691 22.578C178.039 23.598 178.591 24.426 179.347 25.062C180.103 25.686 181.075 25.998 182.263 25.998Z"/>
<path d="M194.529 12.102H193.353L188.661 28.47H187.485L182.793 12.102H181.617V9.63H194.529V12.102Z"/>
<path d="M207.241 12.102H206.065L201.373 28.47H200.197L195.505 12.102H194.329V9.63H207.241V12.102Z"/>
<path d="M208.513 1.03003V28.47H207.337L194.941 9.72603V28.47H193.765V1.03003H194.941L207.337 19.774V1.03003H208.513Z"/>
</g>
</svg>